<svg xmlns="http://www.w3.org/2000/svg"  viewBox="0 0 48 48" width="48px" height="48px"><polygon fill="#bf360c" points="24,4 16,13 32,13"/><rect width="14" height="26" x="17" y="18" fill="#ffb74d"/><polygon fill="#e89419" points="17,29 8,29 6,44 17,44"/><polygon fill="#805a26" points="19,27 6,27 8,29 17,29"/><polygon fill="#e89419" points="33,16 15,16 17,18 31,18"/><polygon fill="#e89419" points="17,21 17,23 14,23 14,21 11,21 11,23 8,23 8,21 6,21 6,27 19,27 19,21"/><polygon fill="#ffb74d" points="29,10 29,12 26,12 26,10 22,10 22,12 19,12 19,10 15,10 15,16 33,16 33,10"/><path fill="#805a26" d="M27,44h-6v-5c0-1.657,1.343-3,3-3h0c1.657,0,3,1.343,3,3V44z"/><path fill="#805a26" d="M14,36h-3v-3.5c0-0.828,0.672-1.5,1.5-1.5h0c0.828,0,1.5,0.672,1.5,1.5V36z"/><polygon fill="#e89419" points="31,29 40,29 42,44 31,44"/><polygon fill="#805a26" points="29,27 42,27 40,29 31,29"/><polygon fill="#e89419" points="31,21 31,23 34,23 34,21 37,21 37,23 40,23 40,21 42,21 42,27 29,27 29,21"/><path fill="#805a26" d="M34,36h3v-3.5c0-0.828-0.672-1.5-1.5-1.5l0,0c-0.828,0-1.5,0.672-1.5,1.5V36z"/></svg>